<svg width="973" height="700" viewBox="0 0 973 700" fill="none" xmlns="http://www.w3.org/2000/svg">
<g filter="url(#filter0_dd)">
<rect x="151" y="527" width="150" height="150" rx="12" fill="#F0F0F3"/>
</g>
<path d="M228.296 580.536H214.408V575.16H235.144V578.488L225.544 627H218.952L228.296 580.536Z" fill="#745FF2"/>
<g filter="url(#filter1_dd)">
<rect x="60" y="449" width="150" height="150" rx="12" fill="#F0F0F3"/>
</g>
<path d="M135.6 538.112H120.56V530.944L134.064 500.16H142.128V532.032H147.952V538.112H142.128V552H135.6V538.112ZM135.6 532.032V508.48L127.152 532.032H135.6Z" fill="#745FF2"/>
<g filter="url(#filter2_dd)">
<rect x="692" y="22" width="150" height="150" rx="12" fill="#F0F0F3"/>
</g>
<g filter="url(#filter3_dd)">
<rect x="783" y="100" width="150" height="150" rx="12" fill="#F0F0F3"/>
</g>
<path d="M847.624 195.136L860.808 174.592C861.448 173.568 861.875 172.928 862.088 172.672C863.581 170.283 864.669 168.299 865.352 166.72C866.035 165.141 866.376 163.243 866.376 161.024C866.376 158.549 865.971 156.651 865.16 155.328C864.349 154.005 863.027 153.344 861.192 153.344C857.096 153.344 855.048 156.523 855.048 162.88V164.608H848.2V162.816C848.2 157.952 849.203 154.219 851.208 151.616C853.213 149.013 856.435 147.712 860.872 147.712C864.968 147.712 868.061 148.885 870.152 151.232C872.243 153.536 873.288 156.821 873.288 161.088C873.288 163.179 873.032 165.056 872.52 166.72C872.051 168.341 871.475 169.749 870.792 170.944C870.109 172.139 869.043 173.845 867.592 176.064L855.688 194.24H872.072V200H847.624V195.136Z" fill="#745FF2"/>
<path d="M766.576 125.576C762.309 125.576 759.088 124.189 756.912 121.416C754.779 118.643 753.712 114.931 753.712 110.28V87.944C753.712 83.208 754.757 79.496 756.848 76.808C758.981 74.0773 762.224 72.712 766.576 72.712C770.885 72.712 774.085 74.0773 776.176 76.808C778.309 79.496 779.376 83.208 779.376 87.944V110.28C779.376 114.973 778.309 118.707 776.176 121.48C774.043 124.211 770.843 125.576 766.576 125.576ZM766.576 119.944C770.501 119.944 772.464 116.744 772.464 110.344V87.88C772.464 84.936 772.037 82.6107 771.184 80.904C770.373 79.1547 768.837 78.28 766.576 78.28C764.315 78.28 762.757 79.1547 761.904 80.904C761.051 82.6107 760.624 84.936 760.624 87.88V110.344C760.624 116.744 762.608 119.944 766.576 119.944Z" fill="#745FF2"/>
<g filter="url(#filter4_dd)">
<rect x="691" y="392" width="150" height="150" rx="12" fill="#F0F0F3"/>
</g>
<path d="M750.764 466.581L722.149 445.886L731.984 432.287L760.599 452.982L778.481 428.257L797.624 442.102L779.743 466.827L808.962 487.959L799.127 501.558L769.908 480.426L751.915 505.305L732.771 491.46L750.764 466.581Z" fill="#745FF2"/>
<g filter="url(#filter5_dd)">
<rect x="766" y="488" width="150" height="150" rx="12" fill="#F0F0F3"/>
</g>
<path d="M779 563.366V556.635C779 552.614 782.514 549.354 786.849 549.354H894.151C898.486 549.354 902 552.614 902 556.635V563.366C902 567.386 898.486 570.646 894.151 570.646H786.849C782.514 570.645 779 567.386 779 563.366Z" fill="#745FF2"/>
<g filter="url(#filter6_dd)">
<rect x="40" y="43" width="150" height="150" rx="12" fill="#F0F0F3"/>
</g>
<path d="M102.314 126.296H67V109.513H102.314V79H125.94V109.513H162V126.296H125.94V157H102.314V126.296Z" fill="#745FF2"/>
<g filter="url(#filter7_dd)">
<rect x="115" y="139" width="150" height="150" rx="12" fill="#F0F0F3"/>
</g>
<path d="M128 214.366V207.635C128 203.614 131.514 200.354 135.849 200.354H243.151C247.486 200.354 251 203.614 251 207.635V214.366C251 218.386 247.486 221.646 243.151 221.646H135.849C131.514 221.645 128 218.386 128 214.366Z" fill="#745FF2"/>
<path d="M189.5 185.351C198.106 185.351 205.083 179.452 205.083 172.176C205.083 164.899 198.106 159 189.5 159C180.894 159 173.917 164.899 173.917 172.176C173.917 179.452 180.894 185.351 189.5 185.351Z" fill="#745FF2"/>
<path d="M189.5 263C198.106 263 205.083 257.101 205.083 249.825C205.083 242.548 198.106 236.649 189.5 236.649C180.894 236.649 173.917 242.548 173.917 249.825C173.917 257.101 180.894 263 189.5 263Z" fill="#745FF2"/>
<defs>
<filter id="filter0_dd" x="111" y="487" width="230" height="230" filterUnits="userSpaceOnUse" color-interpolation-filters="sRGB">
<feFlood flood-opacity="0" result="BackgroundImageFix"/>
<feColorMatrix in="SourceAlpha" type="matrix" values="0 0 0 0 0 0 0 0 0 0 0 0 0 0 0 0 0 0 127 0"/>
<feOffset dx="10" dy="10"/>
<feGaussianBlur stdDeviation="15"/>
<feColorMatrix type="matrix" values="0 0 0 0 0.682353 0 0 0 0 0.682353 0 0 0 0 0.752941 0 0 0 0.4 0"/>
<feBlend mode="normal" in2="BackgroundImageFix" result="effect1_dropShadow"/>
<feColorMatrix in="SourceAlpha" type="matrix" values="0 0 0 0 0 0 0 0 0 0 0 0 0 0 0 0 0 0 127 0"/>
<feOffset dx="-10" dy="-10"/>
<feGaussianBlur stdDeviation="15"/>
<feColorMatrix type="matrix" values="0 0 0 0 1 0 0 0 0 1 0 0 0 0 1 0 0 0 1 0"/>
<feBlend mode="normal" in2="effect1_dropShadow" result="effect2_dropShadow"/>
<feBlend mode="normal" in="SourceGraphic" in2="effect2_dropShadow" result="shape"/>
</filter>
<filter id="filter1_dd" x="20" y="409" width="230" height="230" filterUnits="userSpaceOnUse" color-interpolation-filters="sRGB">
<feFlood flood-opacity="0" result="BackgroundImageFix"/>
<feColorMatrix in="SourceAlpha" type="matrix" values="0 0 0 0 0 0 0 0 0 0 0 0 0 0 0 0 0 0 127 0"/>
<feOffset dx="10" dy="10"/>
<feGaussianBlur stdDeviation="15"/>
<feColorMatrix type="matrix" values="0 0 0 0 0.682353 0 0 0 0 0.682353 0 0 0 0 0.752941 0 0 0 0.4 0"/>
<feBlend mode="normal" in2="BackgroundImageFix" result="effect1_dropShadow"/>
<feColorMatrix in="SourceAlpha" type="matrix" values="0 0 0 0 0 0 0 0 0 0 0 0 0 0 0 0 0 0 127 0"/>
<feOffset dx="-10" dy="-10"/>
<feGaussianBlur stdDeviation="15"/>
<feColorMatrix type="matrix" values="0 0 0 0 1 0 0 0 0 1 0 0 0 0 1 0 0 0 1 0"/>
<feBlend mode="normal" in2="effect1_dropShadow" result="effect2_dropShadow"/>
<feBlend mode="normal" in="SourceGraphic" in2="effect2_dropShadow" result="shape"/>
</filter>
<filter id="filter2_dd" x="652" y="-18" width="230" height="230" filterUnits="userSpaceOnUse" color-interpolation-filters="sRGB">
<feFlood flood-opacity="0" result="BackgroundImageFix"/>
<feColorMatrix in="SourceAlpha" type="matrix" values="0 0 0 0 0 0 0 0 0 0 0 0 0 0 0 0 0 0 127 0"/>
<feOffset dx="10" dy="10"/>
<feGaussianBlur stdDeviation="15"/>
<feColorMatrix type="matrix" values="0 0 0 0 0.682353 0 0 0 0 0.682353 0 0 0 0 0.752941 0 0 0 0.4 0"/>
<feBlend mode="normal" in2="BackgroundImageFix" result="effect1_dropShadow"/>
<feColorMatrix in="SourceAlpha" type="matrix" values="0 0 0 0 0 0 0 0 0 0 0 0 0 0 0 0 0 0 127 0"/>
<feOffset dx="-10" dy="-10"/>
<feGaussianBlur stdDeviation="15"/>
<feColorMatrix type="matrix" values="0 0 0 0 1 0 0 0 0 1 0 0 0 0 1 0 0 0 1 0"/>
<feBlend mode="normal" in2="effect1_dropShadow" result="effect2_dropShadow"/>
<feBlend mode="normal" in="SourceGraphic" in2="effect2_dropShadow" result="shape"/>
</filter>
<filter id="filter3_dd" x="743" y="60" width="230" height="230" filterUnits="userSpaceOnUse" color-interpolation-filters="sRGB">
<feFlood flood-opacity="0" result="BackgroundImageFix"/>
<feColorMatrix in="SourceAlpha" type="matrix" values="0 0 0 0 0 0 0 0 0 0 0 0 0 0 0 0 0 0 127 0"/>
<feOffset dx="10" dy="10"/>
<feGaussianBlur stdDeviation="15"/>
<feColorMatrix type="matrix" values="0 0 0 0 0.682353 0 0 0 0 0.682353 0 0 0 0 0.752941 0 0 0 0.4 0"/>
<feBlend mode="normal" in2="BackgroundImageFix" result="effect1_dropShadow"/>
<feColorMatrix in="SourceAlpha" type="matrix" values="0 0 0 0 0 0 0 0 0 0 0 0 0 0 0 0 0 0 127 0"/>
<feOffset dx="-10" dy="-10"/>
<feGaussianBlur stdDeviation="15"/>
<feColorMatrix type="matrix" values="0 0 0 0 1 0 0 0 0 1 0 0 0 0 1 0 0 0 1 0"/>
<feBlend mode="normal" in2="effect1_dropShadow" result="effect2_dropShadow"/>
<feBlend mode="normal" in="SourceGraphic" in2="effect2_dropShadow" result="shape"/>
</filter>
<filter id="filter4_dd" x="651" y="352" width="230" height="230" filterUnits="userSpaceOnUse" color-interpolation-filters="sRGB">
<feFlood flood-opacity="0" result="BackgroundImageFix"/>
<feColorMatrix in="SourceAlpha" type="matrix" values="0 0 0 0 0 0 0 0 0 0 0 0 0 0 0 0 0 0 127 0"/>
<feOffset dx="10" dy="10"/>
<feGaussianBlur stdDeviation="15"/>
<feColorMatrix type="matrix" values="0 0 0 0 0.682353 0 0 0 0 0.682353 0 0 0 0 0.752941 0 0 0 0.4 0"/>
<feBlend mode="normal" in2="BackgroundImageFix" result="effect1_dropShadow"/>
<feColorMatrix in="SourceAlpha" type="matrix" values="0 0 0 0 0 0 0 0 0 0 0 0 0 0 0 0 0 0 127 0"/>
<feOffset dx="-10" dy="-10"/>
<feGaussianBlur stdDeviation="15"/>
<feColorMatrix type="matrix" values="0 0 0 0 1 0 0 0 0 1 0 0 0 0 1 0 0 0 1 0"/>
<feBlend mode="normal" in2="effect1_dropShadow" result="effect2_dropShadow"/>
<feBlend mode="normal" in="SourceGraphic" in2="effect2_dropShadow" result="shape"/>
</filter>
<filter id="filter5_dd" x="726" y="448" width="230" height="230" filterUnits="userSpaceOnUse" color-interpolation-filters="sRGB">
<feFlood flood-opacity="0" result="BackgroundImageFix"/>
<feColorMatrix in="SourceAlpha" type="matrix" values="0 0 0 0 0 0 0 0 0 0 0 0 0 0 0 0 0 0 127 0"/>
<feOffset dx="10" dy="10"/>
<feGaussianBlur stdDeviation="15"/>
<feColorMatrix type="matrix" values="0 0 0 0 0.682353 0 0 0 0 0.682353 0 0 0 0 0.752941 0 0 0 0.4 0"/>
<feBlend mode="normal" in2="BackgroundImageFix" result="effect1_dropShadow"/>
<feColorMatrix in="SourceAlpha" type="matrix" values="0 0 0 0 0 0 0 0 0 0 0 0 0 0 0 0 0 0 127 0"/>
<feOffset dx="-10" dy="-10"/>
<feGaussianBlur stdDeviation="15"/>
<feColorMatrix type="matrix" values="0 0 0 0 1 0 0 0 0 1 0 0 0 0 1 0 0 0 1 0"/>
<feBlend mode="normal" in2="effect1_dropShadow" result="effect2_dropShadow"/>
<feBlend mode="normal" in="SourceGraphic" in2="effect2_dropShadow" result="shape"/>
</filter>
<filter id="filter6_dd" x="0" y="3" width="230" height="230" filterUnits="userSpaceOnUse" color-interpolation-filters="sRGB">
<feFlood flood-opacity="0" result="BackgroundImageFix"/>
<feColorMatrix in="SourceAlpha" type="matrix" values="0 0 0 0 0 0 0 0 0 0 0 0 0 0 0 0 0 0 127 0"/>
<feOffset dx="10" dy="10"/>
<feGaussianBlur stdDeviation="15"/>
<feColorMatrix type="matrix" values="0 0 0 0 0.682353 0 0 0 0 0.682353 0 0 0 0 0.752941 0 0 0 0.4 0"/>
<feBlend mode="normal" in2="BackgroundImageFix" result="effect1_dropShadow"/>
<feColorMatrix in="SourceAlpha" type="matrix" values="0 0 0 0 0 0 0 0 0 0 0 0 0 0 0 0 0 0 127 0"/>
<feOffset dx="-10" dy="-10"/>
<feGaussianBlur stdDeviation="15"/>
<feColorMatrix type="matrix" values="0 0 0 0 1 0 0 0 0 1 0 0 0 0 1 0 0 0 1 0"/>
<feBlend mode="normal" in2="effect1_dropShadow" result="effect2_dropShadow"/>
<feBlend mode="normal" in="SourceGraphic" in2="effect2_dropShadow" result="shape"/>
</filter>
<filter id="filter7_dd" x="75" y="99" width="230" height="230" filterUnits="userSpaceOnUse" color-interpolation-filters="sRGB">
<feFlood flood-opacity="0" result="BackgroundImageFix"/>
<feColorMatrix in="SourceAlpha" type="matrix" values="0 0 0 0 0 0 0 0 0 0 0 0 0 0 0 0 0 0 127 0"/>
<feOffset dx="10" dy="10"/>
<feGaussianBlur stdDeviation="15"/>
<feColorMatrix type="matrix" values="0 0 0 0 0.682353 0 0 0 0 0.682353 0 0 0 0 0.752941 0 0 0 0.4 0"/>
<feBlend mode="normal" in2="BackgroundImageFix" result="effect1_dropShadow"/>
<feColorMatrix in="SourceAlpha" type="matrix" values="0 0 0 0 0 0 0 0 0 0 0 0 0 0 0 0 0 0 127 0"/>
<feOffset dx="-10" dy="-10"/>
<feGaussianBlur stdDeviation="15"/>
<feColorMatrix type="matrix" values="0 0 0 0 1 0 0 0 0 1 0 0 0 0 1 0 0 0 1 0"/>
<feBlend mode="normal" in2="effect1_dropShadow" result="effect2_dropShadow"/>
<feBlend mode="normal" in="SourceGraphic" in2="effect2_dropShadow" result="shape"/>
</filter>
</defs>
</svg>
